<?xml version="1.0" encoding="iso-8859-1"?>
<!-- Generator: Adobe Illustrator 19.0.0, SVG Export Plug-In . SVG Version: 6.00 Build 0)  -->
<svg version="1.1" id="Layer_1" xmlns="http://www.w3.org/2000/svg" xmlns:xlink="http://www.w3.org/1999/xlink" x="0px" y="0px"
	 viewBox="0 0 512.001 512.001" style="enable-background:new 0 0 512.001 512.001;" xml:space="preserve" fill="#E03C2E">
<g>
	<g>
		<path d="M497.942,15.932c-9.376-7.38-21.808-9.773-33.261-6.399c-39.129,11.538-91.008,32.083-115.951,64.436
			c-0.787,1.019-1.569,2.066-2.348,3.124c-14.607-6.075-29.898-10.73-45.594-13.831c-5.72-1.124-11.279,2.595-12.411,8.317
			c-1.13,5.724,2.592,11.28,8.317,12.411c17.024,3.364,33.529,8.702,49.056,15.868c13.711,6.33,26.311,13.948,37.449,22.64
			c26.965,21.047,43.541,46.768,47.933,74.394c2.018,12.619,1.45,25.656-1.686,38.746c-9.97,41.555-15.604,54.726-18.31,61.055
			c-3.808,8.906-3.508,11.139-1.839,23.528c0.518,3.843,1.227,9.106,2.061,16.274c7.216,61.989-19.613,73.997-43.787,77.532
			c-5.81,0.846-12.201,1.262-20.024,1.303l-80.976-20.023V343.39c12.045-6.399,34.509-21.024,34.509-41.079
			c0-16.428-9.012-23.356-16.573-26.276c-7.91-3.054-17.479-3.058-27.604-3.049h-1.793c-10.132-0.014-19.695-0.005-27.604,3.049
			c-7.561,2.92-16.573,9.848-16.573,26.276c0,20.055,22.464,34.681,34.509,41.079v51.913l-80.989,20.026
			c-7.823-0.04-14.213-0.457-20.017-1.301c-24.181-3.537-51.01-15.545-43.794-77.534c0.835-7.168,1.543-12.432,2.061-16.274
			c1.669-12.391,1.969-14.623-1.839-23.528c-2.706-6.329-8.339-19.5-18.309-61.052c-3.138-13.093-3.705-26.129-1.686-38.756
			c6.202-38.966,38.158-75.254,85.483-97.071c17.994-8.295,37.148-14.098,56.928-17.247c5.762-0.918,9.689-6.332,8.772-12.094
			c-0.918-5.761-6.32-9.682-12.094-8.772c-18.751,2.986-36.993,8.154-54.354,15.38c-0.768-1.042-1.543-2.08-2.333-3.108
			c-24.948-32.355-76.828-52.9-115.962-64.439c-11.451-3.373-23.886-0.98-33.26,6.4C4.695,23.3-0.543,34.806,0.045,46.712
			c1.986,39.996,9.557,94.427,34.35,126.597c7.517,9.748,15.848,18.568,24.809,26.302c-1.425,13.461-0.488,27.209,2.807,40.956
			c10.387,43.291,16.493,57.571,19.428,64.432c0.906,2.121,1.278,3.022,1.3,3.399c0.073,1.219-0.367,4.484-0.975,9.003
			c-0.528,3.922-1.252,9.294-2.108,16.651c-6.524,56.036,11.214,89.346,52.737,99.17c1.036,39.184,33.211,70.747,72.641,70.747
			h101.932c39.429,0,71.604-31.563,72.641-70.746c41.521-9.821,59.261-43.132,52.737-99.17c-0.857-7.357-1.579-12.729-2.108-16.651
			c-0.608-4.518-1.048-7.784-0.975-9.003c0.022-0.376,0.394-1.278,1.3-3.399c2.935-6.861,9.042-21.141,19.429-64.435
			c3.294-13.746,4.232-27.495,2.806-40.952c8.96-7.735,17.291-16.555,24.811-26.304c24.791-32.169,32.362-86.599,34.349-126.598
			C512.542,34.807,507.303,23.301,497.942,15.932z M51.128,160.409C34.39,138.692,23.743,97.94,21.147,45.667
			c-0.255-5.156,1.923-9.944,5.975-13.134c4.066-3.201,9.25-4.199,14.221-2.734c50.64,14.932,87.787,34.987,104.741,56.507
			c-7.568,4.026-14.791,8.432-21.599,13.17c-20.279-24.973-48.987-42.541-66.605-28.955c-4.622,3.561-5.481,10.194-1.917,14.815
			c3.562,4.623,10.195,5.481,14.815,1.917c0.691-0.528,4.88-0.709,12.305,3.389c8.084,4.46,16.974,12.331,24.729,21.82
			c-5.194,4.535-10.045,9.275-14.485,14.2C79.69,141.79,69.99,158.165,64.348,175.523C59.699,170.83,55.274,165.786,51.128,160.409z
			 M232.06,302.312c0-5.387,1.416-5.933,3.056-6.565c4.083-1.577,11.347-1.631,19.126-1.631c0.286,0,0.574,0,0.861,0h1.803
			c8.098-0.001,15.753-0.004,19.988,1.631c1.64,0.633,3.056,1.179,3.056,6.565c0,6.985-12.799,16.859-23.948,22.75
			C245.021,319.24,232.06,309.238,232.06,302.312z M306.966,482.841H205.034c-26.791,0-48.866-20.54-51.326-46.698
			c3.723,0.211,7.684,0.318,12.02,0.318c0.855,0,1.706-0.104,2.535-0.308l30.278-7.487v23.681c0,5.833,4.731,10.564,10.564,10.564
			c5.833,0,10.564-4.731,10.564-10.564v-28.905L256,414.458l34.498,8.53v29.359c0,5.833,4.731,10.564,10.564,10.564
			s10.564-4.731,10.564-10.564v-24.135l32.11,7.94c0.829,0.205,1.682,0.308,2.535,0.308c4.335,0,8.297-0.108,12.02-0.319
			C355.832,462.302,333.757,482.841,306.966,482.841z M490.851,45.666c-2.595,52.274-13.242,93.026-29.978,114.741
			c-4.148,5.38-8.576,10.426-13.228,15.121c-7.539-23.169-22.29-44.612-43.448-63.078c7.764-9.493,16.643-17.351,24.718-21.807
			c7.427-4.099,11.615-3.918,12.305-3.389c4.62,3.563,11.253,2.704,14.815-1.917c3.562-4.621,2.704-11.254-1.917-14.815
			c-17.617-13.58-46.325,3.98-66.598,28.945c-6.817-4.744-14.028-9.151-21.596-13.172c16.978-21.525,54.114-41.568,104.726-56.493
			c4.969-1.464,10.153-0.467,14.221,2.734C488.926,35.727,491.105,40.514,490.851,45.666z"/>
	</g>
</g>
<g>
	<g>
		<path d="M258.884,58.832c-0.959-0.013-1.918-0.019-2.878-0.019c-0.002,0-0.004,0-0.006,0s-0.004,0-0.006,0
			c-5.833,0-10.564,4.731-10.564,10.564c0,5.833,4.729,10.564,10.564,10.564h0.013c0.872,0,1.742,0.006,2.616,0.017
			c0.045,0.001,0.089,0.001,0.134,0.001c5.772,0,10.489-4.644,10.56-10.433C269.388,63.693,264.718,58.904,258.884,58.832z"/>
	</g>
</g>
<g>
	<g>
		<path d="M159.632,315.817h-4.071c-5.833,0-10.564,4.731-10.564,10.564c0,5.833,4.731,10.564,10.564,10.564h4.071
			c5.833,0,10.564-4.731,10.564-10.564C170.196,320.547,165.466,315.817,159.632,315.817z"/>
	</g>
</g>
<g>
	<g>
		<path d="M186.547,354.255h-4.06c-5.833,0-10.564,4.731-10.564,10.564c0,5.833,4.729,10.564,10.564,10.564h4.06
			c5.833,0,10.564-4.731,10.564-10.564C197.111,358.985,192.381,354.255,186.547,354.255z"/>
	</g>
</g>
<g>
	<g>
		<path d="M132.718,354.255h-4.071c-5.833,0-10.564,4.731-10.564,10.564c0,5.833,4.731,10.564,10.564,10.564h4.071
			c5.833,0,10.564-4.731,10.564-10.564C143.282,358.985,138.552,354.255,132.718,354.255z"/>
	</g>
</g>
<g>
	<g>
		<path d="M354.594,315.817h-4.06c-5.833,0-10.564,4.731-10.564,10.564c0,5.833,4.731,10.564,10.564,10.564h4.06
			c5.833,0,10.564-4.731,10.564-10.564C365.158,320.547,360.428,315.817,354.594,315.817z"/>
	</g>
</g>
<g>
	<g>
		<path d="M381.52,354.255h-4.071c-5.833,0-10.564,4.731-10.564,10.564c0,5.833,4.731,10.564,10.564,10.564h4.071
			c5.833,0,10.564-4.731,10.564-10.564C392.084,358.985,387.353,354.255,381.52,354.255z"/>
	</g>
</g>
<g>
	<g>
		<path d="M327.678,354.255h-4.071c-5.833,0-10.564,4.731-10.564,10.564c0,5.833,4.731,10.564,10.564,10.564h4.071
			c5.833,0,10.564-4.731,10.564-10.564C338.242,358.985,333.512,354.255,327.678,354.255z"/>
	</g>
</g>
<g>
	<g>
		<path d="M182.795,219.122l-55.349-21.865c-5.426-2.148-11.562,0.516-13.707,5.942c-2.145,5.426,0.516,11.562,5.942,13.707
			l34.459,13.614l-4.285,10.843c-2.145,5.427,0.516,11.563,5.941,13.708c1.275,0.504,2.588,0.743,3.88,0.743
			c4.209,0,8.187-2.532,9.828-6.685l4.286-10.845l1.249,0.492c1.273,0.503,2.585,0.741,3.875,0.741c4.211,0,8.19-2.534,9.83-6.689
			C190.885,227.4,188.223,221.264,182.795,219.122z"/>
	</g>
</g>
<g>
	<g>
		<path d="M392.856,203.199c-2.143-5.428-8.282-8.087-13.707-5.942L323.8,219.122c-5.428,2.141-8.09,8.278-5.949,13.705
			c1.64,4.155,5.618,6.689,9.83,6.689c1.29,0,2.602-0.239,3.875-0.741l1.249-0.493l4.285,10.845
			c1.641,4.153,5.618,6.685,9.828,6.685c1.292,0,2.605-0.24,3.879-0.743c5.427-2.143,8.087-8.28,5.942-13.707l-4.285-10.843
			l34.459-13.614C392.341,214.761,395.001,208.625,392.856,203.199z"/>
	</g>
</g>
<g>
</g>
<g>
</g>
<g>
</g>
<g>
</g>
<g>
</g>
<g>
</g>
<g>
</g>
<g>
</g>
<g>
</g>
<g>
</g>
<g>
</g>
<g>
</g>
<g>
</g>
<g>
</g>
<g>
</g>
</svg>
