<svg xmlns="http://www.w3.org/2000/svg" width="384" height="256" viewBox="0 0 384 256" version="1.1">
	<path d="M 319.614 30.815 C 318.542 32.551, 319.743 179.470, 320.853 182.250 C 322.512 186.407, 325.621 185.794, 330.735 180.302 C 336.677 173.922, 346.723 158.392, 353.446 145.192 C 359.010 134.270, 360.577 130.089, 357.168 135.258 C 356.168 136.775, 355.050 137.716, 354.683 137.350 C 354.317 136.984, 354.576 135.996, 355.259 135.155 C 356.305 133.865, 356.213 133.733, 354.668 134.313 C 353.661 134.691, 352.593 135, 352.296 135 C 351.998 135, 352.324 135.685, 353.019 136.523 C 354.076 137.796, 354.014 137.943, 352.641 137.416 C 351.739 137.069, 351 137.258, 351 137.836 C 351 138.413, 351.900 138.712, 353 138.500 C 355.694 137.981, 355.552 138.795, 351.636 146.308 C 346.768 155.649, 335.551 171.633, 329.411 177.982 C 324.777 182.773, 322.791 183.329, 325.433 179.095 C 326.005 178.178, 325.942 177.918, 325.248 178.346 C 323.415 179.480, 323.168 171.505, 323.025 106.500 C 322.948 71.850, 322.770 42.150, 322.629 40.500 C 322.488 38.850, 322.289 35.813, 322.186 33.750 C 322.014 30.274, 320.803 28.892, 319.614 30.815 M 332.079 38.583 C 332.127 39.748, 332.364 39.985, 332.683 39.188 C 332.972 38.466, 332.936 37.603, 332.604 37.271 C 332.272 36.939, 332.036 37.529, 332.079 38.583 M 326.232 41 C 326.232 42.925, 326.438 43.712, 326.689 42.750 C 326.941 41.788, 326.941 40.212, 326.689 39.250 C 326.438 38.288, 326.232 39.075, 326.232 41 M 324.158 41 C 324.158 42.375, 324.385 42.938, 324.662 42.250 C 324.940 41.563, 324.940 40.438, 324.662 39.750 C 324.385 39.063, 324.158 39.625, 324.158 41 M 276.333 43.671 C 276.333 45.154, 276.642 45.195, 279.472 44.089 C 281.275 43.384, 281.226 43.276, 278.889 42.830 C 277.185 42.504, 276.333 42.784, 276.333 43.671 M 341.700 44.339 C 341.420 45.069, 341.823 45.667, 342.595 45.667 C 344.170 45.667, 344.474 44.411, 343.105 43.565 C 342.612 43.260, 341.980 43.609, 341.700 44.339 M 337.598 45.750 C 336.798 48.360, 338.465 54.440, 340.929 57.901 C 346.365 65.534, 350.983 86.521, 350.994 103.638 C 350.999 110.486, 350.358 114.997, 348.438 121.638 C 345.546 131.640, 341.288 141.716, 339.502 142.786 C 338.416 143.435, 336.534 150, 337.433 150 C 337.644 150, 339.083 147.998, 340.631 145.551 C 342.366 142.809, 343.716 141.540, 344.151 142.244 C 344.539 142.871, 344.145 143.905, 343.276 144.540 C 342.209 145.321, 342.054 145.915, 342.798 146.375 C 343.404 146.750, 344.388 146.143, 344.985 145.028 C 345.582 143.913, 346.524 143, 347.079 143 C 348.237 143, 347.916 146.195, 346.666 147.111 C 346.208 147.447, 346.568 148.004, 347.468 148.349 C 348.368 148.695, 348.851 148.569, 348.543 148.069 C 348.234 147.570, 348.773 146.371, 349.741 145.405 C 350.708 144.438, 351.552 142.812, 351.615 141.791 C 351.721 140.079, 351.592 140.059, 349.964 141.532 C 348.674 142.700, 348.004 142.815, 347.474 141.958 C 346.927 141.074, 346.562 141.090, 345.984 142.025 C 345.447 142.895, 345.016 142.625, 344.537 141.117 C 344.099 139.737, 344.561 137.814, 345.830 135.735 C 349.721 129.359, 354.184 113.909, 354.709 105 C 355.317 94.670, 353.015 76.088, 349.935 66.457 C 348.065 60.608, 339.593 44, 338.480 44 C 338.290 44, 337.893 44.788, 337.598 45.750 M 225.650 45.758 C 225.392 46.174, 224.884 48.101, 224.521 50.039 C 223.460 55.692, 226.196 57.424, 236.637 57.707 C 241.285 57.833, 245.493 58.187, 245.989 58.493 C 246.485 58.800, 246.847 68.377, 246.793 79.775 C 246.543 132.315, 247.234 190.905, 248.155 195.241 C 249.260 200.443, 249.458 200.681, 253.239 201.367 C 257.876 202.208, 259.738 199.224, 259.085 192 C 258.876 189.683, 258.797 189.646, 258 191.500 C 257.290 193.153, 257.116 192.893, 257 190 C 256.923 188.075, 256.436 185.600, 255.919 184.500 C 255.219 183.012, 255.121 183.460, 255.535 186.250 C 255.973 189.205, 255.763 190, 254.545 190 C 253.628 190, 252.974 190.915, 252.937 192.250 L 252.873 194.500 251.999 192.331 C 250.885 189.568, 250.056 73.678, 251.089 65.028 C 251.983 57.536, 251.337 53, 249.375 53 C 248.619 53, 248 52.534, 248 51.965 C 248 51.251, 247.399 51.251, 246.066 51.965 C 243.844 53.154, 237.468 53.301, 230.390 52.327 L 225.500 51.654 228.500 50.372 C 231.441 49.115, 231.451 49.087, 229 48.945 L 226.500 48.801 229 48 C 231.084 47.333, 231.167 47.180, 229.500 47.084 C 227.834 46.989, 227.750 46.808, 229 46 C 230.219 45.212, 230.090 45.028, 228.309 45.015 C 227.104 45.007, 225.907 45.341, 225.650 45.758 M 234.813 46.683 C 235.534 46.972, 236.397 46.936, 236.729 46.604 C 237.061 46.272, 236.471 46.036, 235.417 46.079 C 234.252 46.127, 234.015 46.364, 234.813 46.683 M 275.500 49.433 C 273.850 50.195, 271.262 51.094, 269.750 51.429 C 267.512 51.925, 267 52.585, 267 54.979 L 267 57.919 274 54.363 C 277.850 52.407, 281 50.175, 281 49.403 C 281 47.645, 279.348 47.654, 275.500 49.433 M 345.656 49.545 C 345.960 50.339, 346.612 50.740, 347.105 50.435 C 348.345 49.669, 348.231 49.303, 346.551 48.658 C 345.584 48.287, 345.286 48.582, 345.656 49.545 M 156.163 50.847 C 155.428 52.138, 154.168 59.113, 153.365 66.347 C 152.561 73.581, 151.543 80.625, 151.102 82 C 150.568 83.665, 150.848 85.798, 151.940 88.385 L 153.581 92.270 154.845 80.385 C 155.540 73.848, 156.567 65.769, 157.126 62.431 C 157.685 59.093, 157.998 54.593, 157.821 52.431 C 157.508 48.603, 157.465 48.562, 156.163 50.847 M 169.272 53 C 169.272 55.475, 169.467 56.487, 169.706 55.250 C 169.944 54.013, 169.944 51.987, 169.706 50.750 C 169.467 49.513, 169.272 50.525, 169.272 53 M 247.269 49.693 C 248.242 49.947, 249.592 49.930, 250.269 49.656 C 250.946 49.382, 250.150 49.175, 248.500 49.195 C 246.850 49.215, 246.296 49.439, 247.269 49.693 M 187.250 54.706 C 184.638 55.209, 184.694 54.536, 185.093 80.500 C 185.459 104.382, 185.272 135.957, 184.531 175 C 184.139 195.665, 184.266 209.649, 184.862 211.500 C 185.393 213.150, 185.867 213.713, 185.914 212.750 C 185.961 211.787, 186.450 211, 187 211 C 187.550 211, 187.947 211.338, 187.882 211.750 C 187.514 214.079, 188.070 215.330, 189.040 214.360 C 189.760 213.640, 189.732 211.809, 188.949 208.410 C 188.151 204.943, 188.022 193.653, 188.512 170 C 189.353 129.354, 189.338 79.772, 188.481 67.444 L 187.852 58.388 190.473 57.194 C 191.915 56.537, 193.860 55.955, 194.797 55.900 C 195.873 55.837, 195.579 55.506, 194 55 C 191.221 54.110, 190.505 54.079, 187.250 54.706 M 203.756 54.664 C 204.447 54.943, 204.777 55.551, 204.490 56.016 C 204.203 56.481, 204.494 57.187, 205.138 57.585 C 205.869 58.037, 206.041 57.876, 205.595 57.155 C 205.196 56.508, 205.458 55.993, 206.191 55.985 C 207.142 55.974, 207.090 55.704, 206 55 C 205.175 54.467, 204.050 54.059, 203.500 54.094 C 202.950 54.129, 203.065 54.386, 203.756 54.664 M 348.459 55.067 C 348.096 55.653, 348.014 56.348, 348.276 56.610 C 348.538 56.872, 349.019 56.392, 349.345 55.543 C 350.021 53.781, 349.445 53.471, 348.459 55.067 M 208.088 56.250 C 208.320 56.388, 209.999 57.849, 211.819 59.498 C 213.827 61.318, 214.873 61.833, 214.480 60.808 C 213.856 59.181, 209.812 56, 208.369 56 C 207.982 56, 207.856 56.112, 208.088 56.250 M 83.338 60.250 C 82.119 62.204, 81.879 65.193, 82.997 64.502 C 83.549 64.161, 84 64.610, 84 65.500 C 84 66.448, 83.532 66.829, 82.870 66.420 C 82.197 66.004, 81.919 66.257, 82.183 67.048 C 82.426 67.778, 83.159 68.553, 83.813 68.771 C 84.625 69.042, 85 67.563, 85 64.083 C 85 58.839, 84.680 58.100, 83.338 60.250 M 262.170 61 C 262.186 61.825, 262.560 63.625, 263 65 C 263.644 67.010, 263.806 67.108, 263.830 65.500 C 263.846 64.400, 263.473 62.600, 263 61.500 C 262.473 60.275, 262.152 60.081, 262.170 61 M 168.158 63 C 168.158 64.375, 168.385 64.938, 168.662 64.250 C 168.940 63.563, 168.940 62.438, 168.662 61.750 C 168.385 61.063, 168.158 61.625, 168.158 63 M 170.195 64.500 C 170.215 66.150, 170.439 66.704, 170.693 65.731 C 170.947 64.758, 170.930 63.408, 170.656 62.731 C 170.382 62.054, 170.175 62.850, 170.195 64.500 M 77.269 65.750 C 76.063 70.064, 76.526 85.987, 78.383 104 C 81.787 137.028, 82.114 142.087, 83.065 176.500 C 83.597 195.750, 84 213.838, 83.962 216.696 C 83.878 222.877, 85.805 225.366, 91.505 226.435 C 94.350 226.969, 95.682 226.746, 96.892 225.536 C 98.311 224.117, 98.324 223.814, 97 222.963 C 96.175 222.433, 93.813 221.717, 91.750 221.372 C 88.555 220.837, 87.990 220.356, 87.931 218.122 C 87.892 216.680, 87.457 198.625, 86.964 178 C 86.047 139.675, 85.622 132.481, 82.057 95 C 80.932 83.175, 80.009 71.138, 80.006 68.250 C 80 62.611, 78.524 61.263, 77.269 65.750 M 161.079 64.583 C 161.127 65.748, 161.364 65.985, 161.683 65.188 C 161.972 64.466, 161.936 63.603, 161.604 63.271 C 161.272 62.939, 161.036 63.529, 161.079 64.583 M 134 64.878 C 134 65.360, 134.749 66.373, 135.664 67.128 C 137.172 68.372, 137.216 68.290, 136.129 66.250 C 134.889 63.923, 134 63.350, 134 64.878 M 216.031 64.750 C 216.075 65.799, 220.989 73.679, 220.995 72.710 C 221.002 71.600, 217.062 64, 216.480 64 C 216.216 64, 216.014 64.338, 216.031 64.750 M 325.079 65.583 C 325.127 66.748, 325.364 66.985, 325.683 66.188 C 325.972 65.466, 325.936 64.603, 325.604 64.271 C 325.272 63.939, 325.036 64.529, 325.079 65.583 M 123.506 67.983 C 123.085 69.307, 124.389 72.740, 127.430 78.318 C 132.638 87.873, 139.010 104.370, 142.564 117.500 L 145 126.500 143.067 139 C 141.271 150.614, 139.990 160.321, 138.008 177.341 C 136.743 188.209, 139.211 193.337, 144.848 191.548 C 146.733 190.950, 149 187.075, 149 184.453 C 149 183.654, 149.348 183, 149.773 183 C 150.198 183, 151.015 180.975, 151.589 178.500 C 152.164 176.025, 152.293 174, 151.876 174 C 151.459 174, 151.764 172.762, 152.553 171.250 C 153.342 169.738, 153.929 167.375, 153.858 166 L 153.728 163.500 153.268 166 C 153.015 167.375, 152.414 168.981, 151.932 169.569 C 151.450 170.157, 150.335 173.743, 149.455 177.538 C 147.438 186.236, 145.814 189.234, 146.496 183 L 146.988 178.500 145.808 182 C 144.727 185.204, 144.593 185.296, 144.223 183.088 C 143.911 181.227, 143.614 180.998, 142.925 182.088 C 141.498 184.342, 141.770 180.678, 143.534 173.867 C 144.439 170.375, 144.724 167.330, 144.229 166.444 C 143.227 164.654, 145.113 143.999, 147.377 131.968 L 148.983 123.436 146.076 113.468 C 140.183 93.257, 135.325 81.395, 128.760 71.186 C 125.129 65.539, 124.419 65.106, 123.506 67.983 M 131.964 67.836 C 132.623 69.120, 133.436 69.897, 133.771 69.562 C 134.107 69.227, 133.568 68.176, 132.574 67.226 C 130.846 65.576, 130.819 65.603, 131.964 67.836 M 201 69.347 C 201 71.255, 201.857 73.682, 202.993 74.992 C 205.339 77.697, 206.545 81.705, 208.131 92.065 C 209.575 101.494, 208.107 112.967, 204.476 120.643 C 203.114 123.521, 202.010 126.692, 202.022 127.688 C 202.064 131.117, 205.786 124.942, 209.011 116.094 C 211.661 108.825, 212.077 106.332, 212.087 97.676 C 212.104 84.007, 209.395 72.948, 204.831 68.050 C 202.110 65.129, 201 65.505, 201 69.347 M 220.564 68.293 C 220.940 69.279, 221.499 69.834, 221.807 69.526 C 222.115 69.219, 221.808 68.412, 221.124 67.733 C 220.136 66.753, 220.022 66.868, 220.564 68.293 M 91.356 72.031 C 91.710 73.802, 92 75.644, 92 76.125 C 92 76.606, 92.682 77, 93.515 77 C 99.781 77, 103.291 104.217, 98.626 116.628 C 96.255 122.936, 95.728 126.257, 97.175 125.775 C 99.115 125.128, 102.803 114.612, 104.131 105.940 C 105.061 99.863, 105.055 96.224, 104.102 89.417 C 102.550 78.317, 100.220 73.663, 94.843 70.920 L 90.713 68.813 91.356 72.031 M 213.250 70.824 C 212.275 71.443, 212.342 72.045, 213.552 73.559 C 215.050 75.434, 215.081 75.419, 214.445 73.125 C 213.955 71.360, 214.110 70.950, 215.047 71.529 C 215.867 72.036, 216.059 71.905, 215.595 71.155 C 214.757 69.799, 214.846 69.811, 213.250 70.824 M 197.195 74.500 C 197.215 76.150, 197.439 76.704, 197.693 75.731 C 197.947 74.758, 197.930 73.408, 197.656 72.731 C 197.382 72.054, 197.175 72.850, 197.195 74.500 M 334.272 76 C 334.272 78.475, 334.467 79.487, 334.706 78.250 C 334.944 77.013, 334.944 74.987, 334.706 73.750 C 334.467 72.513, 334.272 73.525, 334.272 76 M 192.195 75.500 C 192.215 77.150, 192.439 77.704, 192.693 76.731 C 192.947 75.758, 192.930 74.408, 192.656 73.731 C 192.382 73.054, 192.175 73.850, 192.195 75.500 M 286.721 75.507 C 285.416 77.301, 284.828 80.442, 284.510 87.309 C 284.272 92.456, 283.603 97.913, 283.024 99.437 C 280.878 105.081, 283.416 150.249, 286.960 169.500 C 287.467 172.250, 287.916 176.975, 287.960 180 C 288.004 183.025, 288.690 189.100, 289.485 193.500 C 290.280 197.900, 290.946 201.597, 290.965 201.715 C 290.984 201.833, 292.008 202.469, 293.241 203.129 C 296.697 204.979, 299.972 205.004, 302.081 203.199 C 304.398 201.215, 304.638 195.774, 302.487 193.989 C 301.655 193.298, 301.092 192.006, 301.237 191.117 C 301.382 190.227, 300.825 189.500, 300 189.500 C 298.965 189.500, 298.564 190.395, 298.707 192.386 L 298.914 195.272 296.457 191.942 C 295.036 190.016, 294 187.242, 294 185.365 C 294 183.579, 293.615 181.880, 293.144 181.589 C 292.674 181.298, 292.510 182.284, 292.781 183.780 C 293.052 185.276, 292.978 186.228, 292.617 185.897 C 292.255 185.565, 291.756 179.524, 291.507 172.472 C 291.257 165.420, 290.638 159.392, 290.131 159.075 C 288.757 158.219, 287.014 142.024, 286.947 129.500 C 286.914 123.450, 286.523 113.775, 286.078 108 C 285.632 102.225, 285.469 97.276, 285.716 97.002 C 285.962 96.727, 286.802 97.376, 287.582 98.443 C 288.864 100.196, 289 99.801, 289 94.342 C 289 91.020, 289.291 84.859, 289.647 80.651 C 290.329 72.580, 289.681 71.440, 286.721 75.507 M 140.083 76.283 C 140.313 76.439, 141.400 77.226, 142.500 78.033 C 144.350 79.390, 144.397 79.369, 143.128 77.750 C 142.373 76.787, 141.285 76, 140.711 76 C 140.137 76, 139.854 76.127, 140.083 76.283 M 136 78.088 C 136 78.590, 135.887 79.295, 135.750 79.655 C 135.613 80.015, 136.256 80.420, 137.181 80.556 C 138.339 80.726, 138.675 80.316, 138.261 79.237 C 137.822 78.093, 138.042 77.893, 139.080 78.496 C 139.863 78.951, 140.150 78.936, 139.721 78.465 C 138.624 77.260, 136 76.994, 136 78.088 M 168.232 81 C 168.232 82.925, 168.438 83.713, 168.689 82.750 C 168.941 81.787, 168.941 80.213, 168.689 79.250 C 168.438 78.287, 168.232 79.075, 168.232 81 M 295.079 79.583 C 295.127 80.748, 295.364 80.985, 295.683 80.188 C 295.972 79.466, 295.936 78.603, 295.604 78.271 C 295.272 77.939, 295.036 78.529, 295.079 79.583 M 288.079 80.583 C 288.127 81.748, 288.364 81.985, 288.683 81.188 C 288.972 80.466, 288.936 79.603, 288.604 79.271 C 288.272 78.939, 288.036 79.529, 288.079 80.583 M 325.158 81 C 325.158 82.375, 325.385 82.938, 325.662 82.250 C 325.940 81.563, 325.940 80.438, 325.662 79.750 C 325.385 79.063, 325.158 79.625, 325.158 81 M 224.079 81.583 C 224.127 82.748, 224.364 82.985, 224.683 82.188 C 224.972 81.466, 224.936 80.603, 224.604 80.271 C 224.272 79.939, 224.036 80.529, 224.079 81.583 M 171.079 82.583 C 171.127 83.748, 171.364 83.985, 171.683 83.188 C 171.972 82.466, 171.936 81.603, 171.604 81.271 C 171.272 80.939, 171.036 81.529, 171.079 82.583 M 159.079 83.583 C 159.127 84.748, 159.364 84.985, 159.683 84.188 C 159.972 83.466, 159.936 82.603, 159.604 82.271 C 159.272 81.939, 159.036 82.529, 159.079 83.583 M 222.015 84.583 C 222.024 85.638, 222.487 87.175, 223.046 88 C 223.787 89.095, 223.880 88.691, 223.390 86.500 C 222.567 82.823, 221.995 82.025, 222.015 84.583 M 216.115 86 C 216.069 87.375, 216.467 89.175, 217 90 C 217.862 91.333, 217.960 91.333, 217.885 90 C 217.839 89.175, 217.440 87.375, 217 86 L 216.199 83.500 216.115 86 M 191.079 87.583 C 191.127 88.748, 191.364 88.985, 191.683 88.188 C 191.972 87.466, 191.936 86.603, 191.604 86.271 C 191.272 85.939, 191.036 86.529, 191.079 87.583 M 193.079 87.583 C 193.127 88.748, 193.364 88.985, 193.683 88.188 C 193.972 87.466, 193.936 86.603, 193.604 86.271 C 193.272 85.939, 193.036 86.529, 193.079 87.583 M 262.286 90.500 C 262.294 93.250, 262.488 94.256, 262.718 92.736 C 262.947 91.216, 262.941 88.966, 262.704 87.736 C 262.467 86.506, 262.279 87.750, 262.286 90.500 M 169.232 92 C 169.232 93.925, 169.438 94.713, 169.689 93.750 C 169.941 92.787, 169.941 91.213, 169.689 90.250 C 169.438 89.287, 169.232 90.075, 169.232 92 M 33.669 94.250 C 30.012 99.135, 27.997 103.578, 28.023 106.700 C 28.045 109.488, 28.053 109.485, 29.678 106 C 30.576 104.075, 32.584 99.912, 34.140 96.750 C 37.343 90.241, 37.208 89.523, 33.669 94.250 M 222.402 92.395 C 222.108 93.162, 222.020 95.524, 222.208 97.645 C 222.525 101.217, 222.585 101.114, 223.025 96.249 C 223.510 90.890, 223.353 89.917, 222.402 92.395 M 51.512 99.981 C 51.119 100.616, 50.135 100.882, 49.325 100.571 C 47.308 99.797, 45.223 102.117, 43.470 107.084 C 41.608 112.361, 41.656 113.283, 43.604 109.689 C 45.484 106.220, 49.325 106.267, 49.821 109.765 C 49.998 111.010, 50.511 111.802, 50.960 111.525 C 51.410 111.247, 51.572 112.542, 51.322 114.403 C 50.689 119.095, 52.667 125.751, 55.076 127.041 C 58.502 128.874, 64.160 127.838, 65.128 125.199 C 65.655 123.764, 65.611 123.123, 65.010 123.494 C 64.480 123.822, 62.236 123.602, 60.023 123.006 C 56.442 122.042, 55.983 121.570, 55.842 118.711 C 55.756 116.945, 55.740 114.825, 55.808 114 C 56 111.659, 53.817 100.597, 52.978 99.663 C 52.564 99.202, 51.904 99.346, 51.512 99.981 M 361.079 106.583 C 361.127 107.748, 361.364 107.985, 361.683 107.188 C 361.972 106.466, 361.936 105.603, 361.604 105.271 C 361.272 104.939, 361.036 105.529, 361.079 106.583 M 261.068 108.750 C 261.030 109.987, 261.450 111, 262 111 C 262.550 111, 263 111.873, 263 112.941 C 263 114.009, 263.450 115.160, 264 115.500 C 264.567 115.851, 265 115.010, 265 113.559 C 265 112.152, 264.619 111, 264.153 111 C 263.687 111, 262.817 109.987, 262.220 108.750 L 261.135 106.500 261.068 108.750 M 23.628 111.096 C 21.160 117.103, 19.967 127.953, 19.186 151.500 C 18.297 178.286, 19.119 193.760, 21.886 202.364 C 22.972 205.739, 24.160 210.075, 24.526 212 C 25.629 217.801, 31.806 229.726, 34.818 231.871 C 43.607 238.129, 54.068 234.244, 58.943 222.910 C 60.151 220.103, 60.935 217.602, 60.685 217.352 C 60.436 217.102, 59.773 218.212, 59.213 219.818 C 57.753 224.007, 51.164 230.381, 49.619 229.099 C 48.187 227.910, 43.906 228.039, 44.653 229.248 C 44.937 229.706, 46.143 229.817, 47.334 229.493 C 49.074 229.020, 49.187 229.103, 47.906 229.915 C 45.826 231.233, 40.102 229.675, 37.245 227.013 C 34.357 224.323, 28 210.748, 28 207.272 C 28 205.740, 27.536 202.915, 26.969 200.993 C 26.402 199.072, 25.266 191.875, 24.445 185 C 22.710 170.488, 23.051 128.292, 25 116.172 C 26.312 108.013, 25.750 105.933, 23.628 111.096 M 27.195 113.500 C 27.215 115.150, 27.439 115.704, 27.693 114.731 C 27.947 113.758, 27.930 112.408, 27.656 111.731 C 27.382 111.054, 27.175 111.850, 27.195 113.500 M 114 118.459 C 114 119.262, 112.021 123.764, 109.603 128.464 C 107.184 133.164, 105.551 137.223, 105.973 137.483 C 106.395 137.744, 108.345 134.448, 110.307 130.157 C 114.002 122.074, 115.661 117, 114.608 117 C 114.274 117, 114 117.657, 114 118.459 M 223.563 121.509 C 222.628 123.479, 222.036 125.607, 222.246 126.238 C 222.456 126.869, 223.406 125.443, 224.356 123.068 C 226.482 117.754, 225.893 116.598, 223.563 121.509 M 360.111 128.111 C 359.380 129.763, 358.995 131.328, 359.256 131.589 C 359.517 131.851, 360.302 130.685, 361 129 C 362.656 125.003, 361.845 124.193, 360.111 128.111 M 219.983 130.544 C 218.277 135.033, 210.516 146.140, 206.072 150.453 C 203.833 152.627, 202 155.270, 202 156.325 C 202 158, 202.213 158.070, 203.676 156.872 C 209.220 152.331, 223.283 129.950, 221.631 128.297 C 221.315 127.981, 220.573 128.992, 219.983 130.544 M 347.917 133.917 C 347.305 138.201, 347.416 138.900, 348.560 137.950 C 350.413 136.413, 350.948 133.333, 349.363 133.333 C 348.613 133.333, 347.962 133.596, 347.917 133.917 M 211.964 136.164 C 210.819 138.397, 210.846 138.424, 212.574 136.774 C 213.568 135.824, 214.107 134.773, 213.771 134.438 C 213.436 134.103, 212.623 134.880, 211.964 136.164 M 34.158 145 C 34.158 146.375, 34.385 146.938, 34.662 146.250 C 34.940 145.563, 34.940 144.438, 34.662 143.750 C 34.385 143.063, 34.158 143.625, 34.158 145 M 343.507 152.989 C 343.157 153.555, 343.558 153.723, 344.448 153.382 C 346.180 152.717, 346.497 152, 345.059 152 C 344.541 152, 343.843 152.445, 343.507 152.989 M 97.130 164.500 C 97.247 173.100, 98.653 189.314, 98.842 184.250 C 98.929 181.912, 99.338 180.003, 99.750 180.008 C 100.885 180.019, 104.694 187.101, 107.378 194.187 C 115.025 214.377, 117.886 220.983, 120.415 224.300 C 124.179 229.235, 126.462 229.276, 125.546 224.393 C 124.542 219.043, 123.125 215.805, 122.071 216.456 C 120.901 217.179, 120.246 216.139, 119.589 212.517 C 119.305 210.953, 118.607 209.207, 118.037 208.637 C 117.466 208.066, 117 206.903, 116.999 206.050 C 116.999 205.198, 115.699 201.753, 114.111 198.396 C 112.523 195.039, 110.897 190.764, 110.498 188.896 C 110.099 187.028, 109.049 183.925, 108.165 182 C 107.281 180.075, 106.320 176.129, 106.029 173.231 C 105.537 168.326, 104.005 166.132, 103.199 169.175 C 102.958 170.084, 103.215 170.029, 104.018 169 C 105.013 167.725, 105.100 167.775, 104.594 169.332 C 104.267 170.339, 103.986 171.689, 103.970 172.332 C 103.928 173.948, 102.024 170.537, 99.322 164 L 97.047 158.500 97.130 164.500 M 255.870 163 C 255.574 163.825, 255.888 166.525, 256.568 169 C 257.789 173.448, 257.804 173.459, 257.802 170 C 257.800 165.343, 256.595 160.977, 255.870 163 M 142.195 168.500 C 142.215 170.150, 142.439 170.704, 142.693 169.731 C 142.947 168.758, 142.930 167.408, 142.656 166.731 C 142.382 166.054, 142.175 166.850, 142.195 168.500 M 254.158 168 C 254.158 169.375, 254.385 169.938, 254.662 169.250 C 254.940 168.563, 254.940 167.438, 254.662 166.750 C 254.385 166.063, 254.158 166.625, 254.158 168 M 328.980 172.524 C 328.284 173.362, 328.004 174.337, 328.357 174.691 C 328.711 175.044, 329 174.782, 329 174.108 C 329 173.434, 329.375 173.114, 329.833 173.397 C 330.292 173.680, 330.667 173.257, 330.667 172.456 C 330.667 170.638, 330.541 170.643, 328.980 172.524 M 144.500 176 C 144.840 176.550, 145.316 177, 145.559 177 C 145.802 177, 146 176.550, 146 176 C 146 175.450, 145.523 175, 144.941 175 C 144.359 175, 144.160 175.450, 144.500 176 M 256.158 178 C 256.158 179.375, 256.385 179.938, 256.662 179.250 C 256.940 178.563, 256.940 177.438, 256.662 176.750 C 256.385 176.063, 256.158 176.625, 256.158 178 M 53.114 192.363 C 52.076 193.613, 50.983 198.618, 49.652 208.216 C 49.171 211.687, 49.264 211.852, 51.068 210.725 C 53.083 209.467, 53.550 207.628, 54.491 197.250 C 55.087 190.673, 54.942 190.160, 53.114 192.363 M 193.079 192.583 C 193.127 193.748, 193.364 193.985, 193.683 193.188 C 193.972 192.466, 193.936 191.603, 193.604 191.271 C 193.272 190.939, 193.036 191.529, 193.079 192.583 M 191.985 199.250 C 191.972 201.113, 191.787 201.242, 190.909 200 C 190.046 198.780, 189.920 198.768, 190.236 199.938 C 190.942 202.548, 193 202.285, 193 199.583 C 193 198.162, 192.775 197, 192.500 197 C 192.225 197, 191.993 198.012, 191.985 199.250 M 121.564 204.293 C 121.940 205.279, 122.499 205.834, 122.807 205.526 C 123.115 205.219, 122.808 204.412, 122.124 203.733 C 121.136 202.753, 121.022 202.868, 121.564 204.293 M 191.177 203.869 C 190.236 204.466, 190.057 205.830, 190.559 208.604 C 190.946 210.747, 191.443 212.818, 191.663 213.206 C 192.332 214.385, 195 212.887, 195 211.334 C 195 210.535, 195.450 210.160, 196 210.500 C 197.333 211.324, 197.270 205.932, 195.924 204 C 195.152 202.892, 195.053 203.381, 195.546 205.875 C 196.012 208.227, 195.878 209.043, 195.107 208.566 C 194.498 208.190, 194 206.784, 194 205.441 C 194 202.864, 193.342 202.497, 191.177 203.869 M 91.252 210.500 C 91.263 212.700, 91.468 213.482, 91.707 212.238 C 91.946 210.994, 91.937 209.194, 91.687 208.238 C 91.437 207.282, 91.241 208.300, 91.252 210.500 M 123 208.941 C 123 210.009, 123.385 211.120, 123.856 211.411 C 124.326 211.702, 124.499 210.828, 124.239 209.470 C 123.675 206.519, 123 206.231, 123 208.941 M 121.079 209.583 C 121.127 210.748, 121.364 210.985, 121.683 210.188 C 121.972 209.466, 121.936 208.603, 121.604 208.271 C 121.272 207.939, 121.036 208.529, 121.079 209.583 M 124.855 214.141 C 124.282 215.899, 127.550 225.538, 128.305 224.316 C 128.979 223.225, 127.716 217.102, 126.292 214.557 C 125.541 213.215, 125.190 213.114, 124.855 214.141" stroke="none" fill="black" fill-rule="evenodd"/>
</svg>